<svg width="183" height="95" viewBox="0 0 183 95" fill="none" xmlns="http://www.w3.org/2000/svg">
<rect x="112" y="13" width="71" height="82" fill="white"/>
<path d="M26.688 29.672H33.792V43.304C31.968 44.68 29.856 45.736 27.456 46.472C25.056 47.208 22.64 47.576 20.208 47.576C16.72 47.576 13.584 46.84 10.8 45.368C8.016 43.864 5.824 41.8 4.224 39.176C2.656 36.52 1.872 33.528 1.872 30.2C1.872 26.872 2.656 23.896 4.224 21.272C5.824 18.616 8.032 16.552 10.848 15.08C13.664 13.576 16.832 12.824 20.352 12.824C23.296 12.824 25.968 13.32 28.368 14.312C30.768 15.304 32.784 16.744 34.416 18.632L29.424 23.24C27.024 20.712 24.128 19.448 20.736 19.448C18.592 19.448 16.688 19.896 15.024 20.792C13.36 21.688 12.064 22.952 11.136 24.584C10.208 26.216 9.744 28.088 9.744 30.2C9.744 32.28 10.208 34.136 11.136 35.768C12.064 37.4 13.344 38.68 14.976 39.608C16.64 40.504 18.528 40.952 20.64 40.952C22.88 40.952 24.896 40.472 26.688 39.512V29.672ZM57.2873 47.576C53.7993 47.576 50.6473 46.824 47.8313 45.32C45.0473 43.816 42.8553 41.752 41.2553 39.128C39.6873 36.472 38.9033 33.496 38.9033 30.2C38.9033 26.904 39.6873 23.944 41.2553 21.32C42.8553 18.664 45.0473 16.584 47.8313 15.08C50.6473 13.576 53.7993 12.824 57.2873 12.824C60.7753 12.824 63.9113 13.576 66.6953 15.08C69.4793 16.584 71.6713 18.664 73.2713 21.32C74.8713 23.944 75.6713 26.904 75.6713 30.2C75.6713 33.496 74.8713 36.472 73.2713 39.128C71.6713 41.752 69.4793 43.816 66.6953 45.32C63.9113 46.824 60.7753 47.576 57.2873 47.576ZM57.2873 40.952C59.2713 40.952 61.0633 40.504 62.6633 39.608C64.2633 38.68 65.5113 37.4 66.4073 35.768C67.3353 34.136 67.7993 32.28 67.7993 30.2C67.7993 28.12 67.3353 26.264 66.4073 24.632C65.5113 23 64.2633 21.736 62.6633 20.84C61.0633 19.912 59.2713 19.448 57.2873 19.448C55.3033 19.448 53.5113 19.912 51.9113 20.84C50.3113 21.736 49.0473 23 48.1193 24.632C47.2233 26.264 46.7753 28.12 46.7753 30.2C46.7753 32.28 47.2233 34.136 48.1193 35.768C49.0473 37.4 50.3113 38.68 51.9113 39.608C53.5113 40.504 55.3033 40.952 57.2873 40.952ZM102.923 47L96.4433 37.64H96.0593H89.2913V47H81.5153V13.4H96.0593C99.0353 13.4 101.611 13.896 103.787 14.888C105.995 15.88 107.691 17.288 108.875 19.112C110.059 20.936 110.651 23.096 110.651 25.592C110.651 28.088 110.043 30.248 108.827 32.072C107.643 33.864 105.947 35.24 103.739 36.2L111.275 47H102.923ZM102.779 25.592C102.779 23.704 102.171 22.264 100.955 21.272C99.7393 20.248 97.9633 19.736 95.6273 19.736H89.2913V31.448H95.6273C97.9633 31.448 99.7393 30.936 100.955 29.912C102.171 28.888 102.779 27.448 102.779 25.592Z" fill="white"/>
<path d="M127.852 47.576C125.196 47.576 122.62 47.224 120.124 46.52C117.66 45.784 115.676 44.84 114.172 43.688L116.812 37.832C118.252 38.888 119.964 39.736 121.948 40.376C123.932 41.016 125.916 41.336 127.9 41.336C130.108 41.336 131.74 41.016 132.796 40.376C133.852 39.704 134.38 38.824 134.38 37.736C134.38 36.936 134.06 36.28 133.42 35.768C132.812 35.224 132.012 34.792 131.02 34.472C130.06 34.152 128.748 33.8 127.084 33.416C124.524 32.808 122.428 32.2 120.796 31.592C119.164 30.984 117.756 30.008 116.572 28.664C115.42 27.32 114.844 25.528 114.844 23.288C114.844 21.336 115.372 19.576 116.428 18.008C117.484 16.408 119.068 15.144 121.18 14.216C123.324 13.288 125.932 12.824 129.004 12.824C131.148 12.824 133.244 13.08 135.292 13.592C137.34 14.104 139.132 14.84 140.668 15.8L138.268 21.704C135.164 19.944 132.06 19.064 128.956 19.064C126.78 19.064 125.164 19.416 124.108 20.12C123.084 20.824 122.572 21.752 122.572 22.904C122.572 24.056 123.164 24.92 124.348 25.496C125.564 26.04 127.404 26.584 129.868 27.128C132.428 27.736 134.524 28.344 136.156 28.952C137.788 29.56 139.18 30.52 140.332 31.832C141.516 33.144 142.108 34.92 142.108 37.16C142.108 39.08 141.564 40.84 140.476 42.44C139.42 44.008 137.82 45.256 135.676 46.184C133.532 47.112 130.924 47.576 127.852 47.576ZM178.238 13.4V47H170.462V33.224H155.198V47H147.422V13.4H155.198V26.648H170.462V13.4H178.238Z" fill="black"/>
</svg>
